<?xml version="1.0" encoding="UTF-8"?>
<!DOCTYPE svg PUBLIC "-//W3C//DTD SVG 1.1//EN" "http://www.w3.org/Graphics/SVG/1.1/DTD/svg11.dtd">
<svg xmlns="http://www.w3.org/2000/svg" version="1.1" width="640px" height="110px" style="shape-rendering:geometricPrecision; text-rendering:geometricPrecision; image-rendering:optimizeQuality; fill-rule:evenodd; clip-rule:evenodd" xmlns:xlink="http://www.w3.org/1999/xlink">
<g><path style="opacity:0.957" fill="#fe0b00" d="M 589.5,3.5 C 594.179,3.33418 598.845,3.50085 603.5,4C 604.357,4.68909 605.023,5.52242 605.5,6.5C 602.786,17.7902 600.62,29.1236 599,40.5C 608.379,31.7984 618.879,29.9651 630.5,35C 635.841,41.1943 637.674,48.3609 636,56.5C 633.383,71.2514 630.383,85.9181 627,100.5C 621.637,102.682 616.137,103.016 610.5,101.5C 609.353,99.2351 609.186,96.9018 610,94.5C 612.693,81.5362 615.193,68.5362 617.5,55.5C 617.714,51.1401 615.714,48.8068 611.5,48.5C 602.936,51.2291 597.102,56.8958 594,65.5C 591.458,77.2119 588.791,88.8786 586,100.5C 580.319,102.788 574.485,103.121 568.5,101.5C 573.956,69.3839 580.123,37.3839 587,5.5C 587.995,4.93406 588.828,4.26739 589.5,3.5 Z"/></g>
<g><path style="opacity:0.954" fill="#0093ff" d="M 71.5,7.5 C 81.8242,6.45869 90.9909,9.12535 99,15.5C 99.5177,19.5511 99.1843,23.5511 98,27.5C 97.3203,29.513 95.987,30.8464 94,31.5C 77.6165,20.0622 63.9498,22.7289 53,39.5C 46.3153,51.5915 44.6487,64.2581 48,77.5C 49.9904,81.4905 53.1571,83.9905 57.5,85C 61.8333,85.6667 66.1667,85.6667 70.5,85C 75.2735,83.4469 79.9402,81.6135 84.5,79.5C 86.2664,79.4342 87.2664,80.2676 87.5,82C 87.7808,91.4694 83.4475,97.4694 74.5,100C 60.2723,104.577 46.9389,102.911 34.5,95C 27.5155,87.4231 24.1821,78.4231 24.5,68C 25.1486,47.712 32.8152,30.712 47.5,17C 54.8132,11.8342 62.8132,8.66754 71.5,7.5 Z"/></g>
<g><path style="opacity:0.947" fill="#0093ff" d="M 132.5,7.5 C 141.632,6.51638 150.299,8.01638 158.5,12C 160.01,13.3513 161.01,15.018 161.5,17C 160.793,20.2001 159.96,23.3668 159,26.5C 158.311,27.3567 157.478,28.0233 156.5,28.5C 150.073,24.3103 143.073,22.477 135.5,23C 125.366,26.907 123.366,33.2403 129.5,42C 138.123,45.9549 145.623,51.4549 152,58.5C 158.808,78.0545 152.641,91.8879 133.5,100C 121.728,103.482 110.062,103.149 98.5,99C 95.383,97.5549 93.383,95.2216 92.5,92C 92.8384,87.603 94.1717,83.603 96.5,80C 100.598,81.0119 104.598,82.6786 108.5,85C 116.173,87.5276 123.506,86.861 130.5,83C 134.588,78.7173 135.421,73.884 133,68.5C 124.977,63.3212 117.311,57.6546 110,51.5C 100.742,28.3492 108.242,13.6825 132.5,7.5 Z"/></g>
<g><path style="opacity:0.954" fill="#0093ff" d="M 205.5,8.5 C 212.543,8.28032 219.543,8.61365 226.5,9.5C 231.433,39.4256 235.6,69.4256 239,99.5C 238.25,100.126 237.416,100.626 236.5,101C 231.051,101.896 225.718,101.563 220.5,100C 218.972,93.6167 217.972,87.1167 217.5,80.5C 206.162,80.3335 194.828,80.5001 183.5,81C 180.338,87.6606 176.672,93.9939 172.5,100C 167.589,101.492 162.589,101.826 157.5,101C 156.09,100.632 155.09,99.7989 154.5,98.5C 169.652,70.1982 184.819,41.8649 200,13.5C 201.406,11.2563 203.239,9.58966 205.5,8.5 Z M 209.5,29.5 C 210.117,29.6107 210.617,29.944 211,30.5C 212.583,42.1649 214.083,53.8316 215.5,65.5C 207.493,65.6664 199.493,65.4997 191.5,65C 197.654,53.1913 203.654,41.358 209.5,29.5 Z"/></g>
<g><path style="opacity:0.954" fill="#fe0b00" d="M 281.5,8.5 C 290.61,7.60043 299.277,9.10043 307.5,13C 308.87,14.4413 309.87,16.108 310.5,18C 310.005,21.9919 308.671,25.6586 306.5,29C 305.5,29.6667 304.5,29.6667 303.5,29C 295.969,23.6894 287.969,22.6894 279.5,26C 273.302,31.3692 272.968,37.0358 278.5,43C 287.774,47.3809 295.607,53.5476 302,61.5C 307.152,80.3611 300.652,93.5278 282.5,101C 271.833,104.333 261.167,104.333 250.5,101C 240.301,96.7069 238.635,90.0402 245.5,81C 250.502,82.656 255.502,84.656 260.5,87C 267.249,88.3306 273.582,87.3306 279.5,84C 283.588,79.7173 284.421,74.884 282,69.5C 273.977,64.3212 266.311,58.6546 259,52.5C 249.736,29.3626 257.236,14.6959 281.5,8.5 Z"/></g>
<g><path style="opacity:0.955" fill="#fe0b00" d="M 351.5,31.5 C 359.237,31.3572 366.237,33.5239 372.5,38C 381.235,51.5705 378.235,61.9039 363.5,69C 353.048,71.9705 342.382,73.1371 331.5,72.5C 329.014,83.3398 333.181,89.0065 344,89.5C 351.898,88.3984 359.732,87.0651 367.5,85.5C 368.715,94.9331 364.715,100.433 355.5,102C 344.268,104.496 333.268,103.83 322.5,100C 315.444,94.7072 312.111,87.5405 312.5,78.5C 313.034,61.2649 320.034,47.4316 333.5,37C 339.247,33.9031 345.247,32.0698 351.5,31.5 Z M 347.5,45.5 C 353.219,44.359 357.219,46.359 359.5,51.5C 359.144,54.6879 357.477,56.8545 354.5,58C 347.988,60.2093 341.321,60.876 334.5,60C 336.622,53.0513 340.955,48.2179 347.5,45.5 Z"/></g>
<g><path style="opacity:0.957" fill="#fe0b00" d="M 417.5,31.5 C 425.211,31.5576 431.377,34.5576 436,40.5C 436.795,38.0988 437.962,35.9321 439.5,34C 444.087,33.2009 448.587,33.3676 453,34.5C 449.913,56.272 445.913,77.9386 441,99.5C 440.228,100.849 439.061,101.682 437.5,102C 434.167,102.667 430.833,102.667 427.5,102C 426.167,101.333 425.167,100.333 424.5,99C 425.576,97.2739 425.743,95.4406 425,93.5C 415.339,103.709 404.172,105.876 391.5,100C 385.893,94.1873 383.226,87.1873 383.5,79C 383.719,62.9951 389.385,49.3284 400.5,38C 405.713,34.3228 411.38,32.1562 417.5,31.5 Z M 418.5,47.5 C 430.962,49.4616 434.462,56.1283 429,67.5C 426.566,76.217 421.399,82.717 413.5,87C 406.1,88.4452 402.433,85.2786 402.5,77.5C 403.09,69.3847 405.256,61.7181 409,54.5C 411.529,51.1151 414.696,48.7818 418.5,47.5 Z"/></g>
<g><path style="opacity:0.951" fill="#fe0b00" d="M 501.5,31.5 C 505.033,31.5053 508.2,32.5053 511,34.5C 510.976,39.6356 509.976,44.6356 508,49.5C 504.249,49.9727 500.416,50.1394 496.5,50C 489.447,54.2623 484.947,60.429 483,68.5C 481.046,79.2729 478.713,89.9396 476,100.5C 470.319,102.788 464.485,103.121 458.5,101.5C 461.956,79.385 466.123,57.385 471,35.5C 471.5,35 472,34.5 472.5,34C 476.833,33.3333 481.167,33.3333 485.5,34C 486.346,36.7823 486.513,39.6157 486,42.5C 490.011,36.9571 495.177,33.2904 501.5,31.5 Z"/></g>
<g><path style="opacity:0.952" fill="#fe0b00" d="M 547.5,31.5 C 553.444,31.9446 559.11,33.4446 564.5,36C 567.97,39.3368 568.47,43.1702 566,47.5C 565.394,50.0932 563.894,51.7598 561.5,52.5C 545.74,43.1212 535.573,47.4545 531,65.5C 528.563,72.6108 529.063,79.4441 532.5,86C 540.612,88.8398 547.945,87.5065 554.5,82C 555.793,81.51 557.127,81.3433 558.5,81.5C 558.911,87.1887 557.744,92.5221 555,97.5C 543.585,104.404 531.751,105.237 519.5,100C 514.761,96.6874 511.928,92.1874 511,86.5C 508.527,67.2455 514.361,51.0789 528.5,38C 534.491,34.4299 540.824,32.2632 547.5,31.5 Z"/></g>
</svg>
